<?xml version="1.0" encoding="utf-8"?>
<!-- Generator: Adobe Illustrator 24.2.0, SVG Export Plug-In . SVG Version: 6.00 Build 0)  -->
<svg version="1.1" xmlns="http://www.w3.org/2000/svg" xmlns:xlink="http://www.w3.org/1999/xlink" stroke="white" stroke-width="14" fill="none"
	x="0px" y="0px" viewBox="0 0 250 250" style="enable-background:new 0 0 250 250;" xml:space="preserve">
<path d="M-45,34"/>
<path d="M144,52"/>
<path d="M198,196"/>
<path d="M36,70"/>
<path d="M135,178"/>
<path d="M270,106"/>
<g>
	<polygon points="54,142 98.9,178.1 116.9,196 135,196 153,178.1 198,142.1 189,124 198,70 189,52 153,88 99,88 63,52 
		54,70 63,124 	"/>
	<g>
		<path fill="white" d="M54,142.1l44.9,9c0,0,0,0,0,0l18,44.9c0,0,0,0,0,0l-17.9-17.9c0,0,0,0,0,0L54,142.1
			C54,142.1,54,142.1,54,142.1z"/>
		<path fill="white" d="M198,142.1l-45,9c0,0,0,0,0,0L135,196c0,0,0,0.1,0,0l17.9-17.9c0,0,0,0,0,0L198,142.1
			C198,142.1,198,142.1,198,142.1z"/>
	</g>
</g>
</svg>
