<?xml version="1.0" standalone="no"?>
<svg version="1.0" xmlns="http://www.w3.org/2000/svg"
 width="250" height="250" viewBox="0 0 250 250"
 preserveAspectRatio="xMidYMid meet">

<g transform="translate(0,250) scale(0.1,-0.1)"
fill="currentColor" stroke="none">
<path d="M712 2203 c-6 -21 -36 -162 -67 -312 -31 -151 -63 -286 -71 -300 -8
-15 -28 -48 -45 -75 -36 -59 -209 -395 -209 -407 0 -10 222 -262 265 -301 17
-15 68 -72 115 -128 47 -55 143 -168 214 -250 l129 -150 208 0 207 0 122 139
c67 76 129 149 138 162 23 34 168 198 206 234 17 17 83 88 146 158 l113 129
-97 191 c-54 106 -111 211 -127 234 -15 24 -33 52 -39 63 -6 11 -37 149 -69
307 -67 323 -71 343 -78 343 -9 0 -346 -270 -368 -295 -11 -12 -43 -41 -71
-63 -72 -59 -101 -57 -184 10 -36 29 -72 60 -80 70 -14 16 -338 278 -344 278
-2 0 -8 -17 -14 -37z m133 -330 c26 -49 65 -120 87 -159 l38 -72 -110 -27
c-61 -15 -113 -25 -116 -23 -4 4 48 368 52 368 1 0 23 -39 49 -87z m887 -100
c15 -98 25 -179 23 -181 -2 -3 -54 8 -115 23 l-110 27 55 102 c31 55 68 125
83 154 14 28 29 52 32 52 3 0 17 -80 32 -177z m-678 -443 c69 -72 126 -137
126 -146 0 -23 58 -144 69 -144 11 0 53 86 64 130 4 14 67 85 140 158 l134
134 154 -79 154 -78 44 -98 45 -98 -94 -94 c-82 -82 -100 -95 -144 -106 -28
-6 -58 -15 -66 -20 -9 -4 -29 -49 -45 -100 -29 -90 -33 -96 -145 -222 -87 -98
-124 -133 -152 -143 -36 -12 -38 -12 -38 9 0 14 22 45 60 82 33 33 60 65 60
71 0 11 -33 21 -133 39 -38 7 -217 -21 -217 -34 0 -4 29 -36 65 -71 43 -43 65
-72 65 -88 0 -24 -5 -24 -65 -2 -11 4 -70 65 -130 134 -105 122 -111 131 -142
223 -18 53 -38 100 -44 103 -6 4 -36 13 -67 19 -52 12 -65 20 -148 103 l-92
90 46 100 46 100 156 79 c85 43 158 78 161 78 4 1 63 -58 133 -129z"/>
<path d="M850 1198 c0 -7 15 -39 33 -72 31 -57 34 -60 116 -92 47 -19 87 -32
89 -29 7 6 -58 164 -71 172 -12 7 -125 32 -149 33 -10 0 -18 -6 -18 -12z"/>
<path d="M1537 1195 c-32 -7 -60 -14 -62 -17 -7 -7 -65 -150 -65 -159 0 -16
36 -9 106 19 65 26 71 32 101 88 18 32 33 65 33 72 0 15 -36 14 -113 -3z"/>
</g>
</svg>
