<svg id="visual" viewBox="0 0 600 600" width="600" height="600" xmlns="http://www.w3.org/2000/svg" xmlns:xlink="http://www.w3.org/1999/xlink" version="1.1"><rect x="0" y="0" width="900" height="600" fill="#0000"></rect><defs><linearGradient id="grad1_0" x1="33.3%" y1="0%" x2="100%" y2="100%"><stop offset="20%" stop-color="#f97316" stop-opacity="1"></stop><stop offset="80%" stop-color="#f97316" stop-opacity="1"></stop></linearGradient></defs><defs><linearGradient id="grad1_1" x1="33.3%" y1="0%" x2="100%" y2="100%"><stop offset="20%" stop-color="#f97316" stop-opacity="1"></stop><stop offset="80%" stop-color="#ca3c66" stop-opacity="1"></stop></linearGradient></defs><defs><linearGradient id="grad1_2" x1="33.3%" y1="0%" x2="100%" y2="100%"><stop offset="20%" stop-color="#663b6f" stop-opacity="1"></stop><stop offset="80%" stop-color="#ca3c66" stop-opacity="1"></stop></linearGradient></defs><defs><linearGradient id="grad1_3" x1="33.3%" y1="0%" x2="100%" y2="100%"><stop offset="20%" stop-color="#663b6f" stop-opacity="1"></stop><stop offset="80%" stop-color="#1e293b" stop-opacity="1"></stop></linearGradient></defs><defs><linearGradient id="grad2_0" x1="0%" y1="0%" x2="66.7%" y2="100%"><stop offset="20%" stop-color="#f97316" stop-opacity="1"></stop><stop offset="80%" stop-color="#f97316" stop-opacity="1"></stop></linearGradient></defs><defs><linearGradient id="grad2_1" x1="0%" y1="0%" x2="66.7%" y2="100%"><stop offset="20%" stop-color="#ca3c66" stop-opacity="1"></stop><stop offset="80%" stop-color="#f97316" stop-opacity="1"></stop></linearGradient></defs><defs><linearGradient id="grad2_2" x1="0%" y1="0%" x2="66.7%" y2="100%"><stop offset="20%" stop-color="#ca3c66" stop-opacity="1"></stop><stop offset="80%" stop-color="#663b6f" stop-opacity="1"></stop></linearGradient></defs><defs><linearGradient id="grad2_3" x1="0%" y1="0%" x2="66.7%" y2="100%"><stop offset="20%" stop-color="#1e293b" stop-opacity="1"></stop><stop offset="80%" stop-color="#663b6f" stop-opacity="1"></stop></linearGradient></defs>
<g transform="translate(0, 600)">
    <path d="M0 -540.8C51.5 -540 103.1 -539.3 136.1 -508.1C169.2 -476.9 183.8 -415.3 229.5 -397.5C275.2 -379.7 352.2 -405.7 382.4 -382.4C412.7 -359.1 396.3 -286.5 416.6 -240.5C436.8 -194.5 493.8 -175.1 520.6 -139.5C547.5 -103.9 544.1 -51.9 540.8 0L0 0Z" fill="#39355a"></path>
    <path d="M0 -405.6C38.7 -405 77.3 -404.4 102.1 -381.1C126.9 -357.7 137.8 -311.5 172.1 -298.1C206.4 -284.8 264.1 -304.3 286.8 -286.8C309.5 -269.3 297.2 -214.9 312.4 -180.4C327.6 -145.9 370.4 -131.4 390.5 -104.6C410.6 -77.9 408.1 -38.9 405.6 0L0 0Z" fill="#9a3b74"></path>
    <path d="M0 -270.4C25.8 -270 51.5 -269.6 68.1 -254C84.6 -238.4 91.9 -207.6 114.7 -198.8C137.6 -189.9 176.1 -202.9 191.2 -191.2C206.3 -179.6 198.1 -143.2 208.3 -120.3C218.4 -97.3 246.9 -87.6 260.3 -69.8C273.7 -51.9 272.1 -26 270.4 0L0 0Z" fill="#ec4e49"></path>
    <path d="M0 -135.2C12.9 -135 25.8 -134.8 34 -127C42.3 -119.2 45.9 -103.8 57.4 -99.4C68.8 -94.9 88 -101.4 95.6 -95.6C103.2 -89.8 99.1 -71.6 104.1 -60.1C109.2 -48.6 123.5 -43.8 130.2 -34.9C136.9 -26 136 -13 135.2 0L0 0Z" fill="#f97316"></path>
</g></svg>