<svg id="visual" viewBox="0 0 1200 200" width="1200" height="200" xmlns="http://www.w3.org/2000/svg" xmlns:xlink="http://www.w3.org/1999/xlink" version="1.1"><path d="M0 37L18.2 37.7C36.3 38.3 72.7 39.7 109 45C145.3 50.3 181.7 59.7 218 66.3C254.3 73 290.7 77 327 76.7C363.3 76.3 399.7 71.7 436 70.7C472.3 69.7 508.7 72.3 545.2 66.3C581.7 60.3 618.3 45.7 654.8 42.3C691.3 39 727.7 47 764 47C800.3 47 836.7 39 873 41C909.3 43 945.7 55 982 65C1018.3 75 1054.7 83 1091 80C1127.3 77 1163.7 63 1181.8 56L1200 49L1200 0L1181.8 0C1163.7 0 1127.3 0 1091 0C1054.7 0 1018.3 0 982 0C945.7 0 909.3 0 873 0C836.7 0 800.3 0 764 0C727.7 0 691.3 0 654.8 0C618.3 0 581.7 0 545.2 0C508.7 0 472.3 0 436 0C399.7 0 363.3 0 327 0C290.7 0 254.3 0 218 0C181.7 0 145.3 0 109 0C72.7 0 36.3 0 18.2 0L0 0Z" fill="#0f172a"></path><path d="M0 109L18.2 106.3C36.3 103.7 72.7 98.3 109 97C145.3 95.7 181.7 98.3 218 100.7C254.3 103 290.7 105 327 104C363.3 103 399.7 99 436 99C472.3 99 508.7 103 545.2 104.7C581.7 106.3 618.3 105.7 654.8 103.7C691.3 101.7 727.7 98.3 764 96.7C800.3 95 836.7 95 873 101.3C909.3 107.7 945.7 120.3 982 124.7C1018.3 129 1054.7 125 1091 121.3C1127.3 117.7 1163.7 114.3 1181.8 112.7L1200 111L1200 47L1181.8 54C1163.7 61 1127.3 75 1091 78C1054.7 81 1018.3 73 982 63C945.7 53 909.3 41 873 39C836.7 37 800.3 45 764 45C727.7 45 691.3 37 654.8 40.3C618.3 43.7 581.7 58.3 545.2 64.3C508.7 70.3 472.3 67.7 436 68.7C399.7 69.7 363.3 74.3 327 74.7C290.7 75 254.3 71 218 64.3C181.7 57.7 145.3 48.3 109 43C72.7 37.7 36.3 36.3 18.2 35.7L0 35Z" fill="#452955"></path><path d="M0 133L18.2 130.3C36.3 127.7 72.7 122.3 109 121.7C145.3 121 181.7 125 218 125.7C254.3 126.3 290.7 123.7 327 122.7C363.3 121.7 399.7 122.3 436 123C472.3 123.7 508.7 124.3 545.2 125.7C581.7 127 618.3 129 654.8 128C691.3 127 727.7 123 764 120.3C800.3 117.7 836.7 116.3 873 121C909.3 125.7 945.7 136.3 982 141C1018.3 145.7 1054.7 144.3 1091 141.7C1127.3 139 1163.7 135 1181.8 133L1200 131L1200 109L1181.8 110.7C1163.7 112.3 1127.3 115.7 1091 119.3C1054.7 123 1018.3 127 982 122.7C945.7 118.3 909.3 105.7 873 99.3C836.7 93 800.3 93 764 94.7C727.7 96.3 691.3 99.7 654.8 101.7C618.3 103.7 581.7 104.3 545.2 102.7C508.7 101 472.3 97 436 97C399.7 97 363.3 101 327 102C290.7 103 254.3 101 218 98.7C181.7 96.3 145.3 93.7 109 95C72.7 96.3 36.3 101.7 18.2 104.3L0 107Z" fill="#922d64"></path><path d="M0 165L18.2 165.3C36.3 165.7 72.7 166.3 109 167.3C145.3 168.3 181.7 169.7 218 171C254.3 172.3 290.7 173.7 327 173C363.3 172.3 399.7 169.7 436 167.3C472.3 165 508.7 163 545.2 165.7C581.7 168.3 618.3 175.7 654.8 175.3C691.3 175 727.7 167 764 163.7C800.3 160.3 836.7 161.7 873 165C909.3 168.3 945.7 173.7 982 174C1018.3 174.3 1054.7 169.7 1091 168.3C1127.3 167 1163.7 169 1181.8 170L1200 171L1200 129L1181.8 131C1163.7 133 1127.3 137 1091 139.7C1054.7 142.3 1018.3 143.7 982 139C945.7 134.3 909.3 123.7 873 119C836.7 114.3 800.3 115.7 764 118.3C727.7 121 691.3 125 654.8 126C618.3 127 581.7 125 545.2 123.7C508.7 122.3 472.3 121.7 436 121C399.7 120.3 363.3 119.7 327 120.7C290.7 121.7 254.3 124.3 218 123.7C181.7 123 145.3 119 109 119.7C72.7 120.3 36.3 125.7 18.2 128.3L0 131Z" fill="#d63c50"></path><path d="M0 201L18.2 201C36.3 201 72.7 201 109 201C145.3 201 181.7 201 218 201C254.3 201 290.7 201 327 201C363.3 201 399.7 201 436 201C472.3 201 508.7 201 545.2 201C581.7 201 618.3 201 654.8 201C691.3 201 727.7 201 764 201C800.3 201 836.7 201 873 201C909.3 201 945.7 201 982 201C1018.3 201 1054.7 201 1091 201C1127.3 201 1163.7 201 1181.8 201L1200 201L1200 169L1181.8 168C1163.7 167 1127.3 165 1091 166.3C1054.7 167.7 1018.3 172.3 982 172C945.7 171.7 909.3 166.3 873 163C836.7 159.7 800.3 158.3 764 161.7C727.7 165 691.3 173 654.8 173.3C618.3 173.7 581.7 166.3 545.2 163.7C508.7 161 472.3 163 436 165.3C399.7 167.7 363.3 170.3 327 171C290.7 171.7 254.3 170.3 218 169C181.7 167.7 145.3 166.3 109 165.3C72.7 164.3 36.3 163.7 18.2 163.3L0 163Z" fill="#f97316"></path></svg>