<svg id="visual" viewBox="0 0 1200 200" width="1200" height="200" xmlns="http://www.w3.org/2000/svg" xmlns:xlink="http://www.w3.org/1999/xlink" version="1.1"><path d="M0 37L12.5 36C25 35 50 33 75 34.7C100 36.3 125 41.7 150 41.7C175 41.7 200 36.3 225 34.7C250 33 275 35 300 38.3C325 41.7 350 46.3 375 48C400 49.7 425 48.3 450 41.7C475 35 500 23 525 27C550 31 575 51 600 59.7C625 68.3 650 65.7 675 64.3C700 63 725 63 750 60.7C775 58.3 800 53.7 825 53.3C850 53 875 57 900 54.7C925 52.3 950 43.7 975 40.7C1000 37.7 1025 40.3 1050 39.7C1075 39 1100 35 1125 35.3C1150 35.7 1175 40.3 1187.5 42.7L1200 45L1200 0L1187.5 0C1175 0 1150 0 1125 0C1100 0 1075 0 1050 0C1025 0 1000 0 975 0C950 0 925 0 900 0C875 0 850 0 825 0C800 0 775 0 750 0C725 0 700 0 675 0C650 0 625 0 600 0C575 0 550 0 525 0C500 0 475 0 450 0C425 0 400 0 375 0C350 0 325 0 300 0C275 0 250 0 225 0C200 0 175 0 150 0C125 0 100 0 75 0C50 0 25 0 12.5 0L0 0Z" fill="#1e293b00"></path><path d="M0 41L12.5 41.7C25 42.3 50 43.7 75 46C100 48.3 125 51.7 150 53.7C175 55.7 200 56.3 225 58C250 59.7 275 62.3 300 65.3C325 68.3 350 71.7 375 70.7C400 69.7 425 64.3 450 59.7C475 55 500 51 525 54C550 57 575 67 600 73.3C625 79.7 650 82.3 675 82.3C700 82.3 725 79.7 750 75C775 70.3 800 63.7 825 67C850 70.3 875 83.7 900 81C925 78.3 950 59.7 975 52C1000 44.3 1025 47.7 1050 52.7C1075 57.7 1100 64.3 1125 68C1150 71.7 1175 72.3 1187.5 72.7L1200 73L1200 43L1187.5 40.7C1175 38.3 1150 33.7 1125 33.3C1100 33 1075 37 1050 37.7C1025 38.3 1000 35.7 975 38.7C950 41.7 925 50.3 900 52.7C875 55 850 51 825 51.3C800 51.7 775 56.3 750 58.7C725 61 700 61 675 62.3C650 63.7 625 66.3 600 57.7C575 49 550 29 525 25C500 21 475 33 450 39.7C425 46.3 400 47.7 375 46C350 44.3 325 39.7 300 36.3C275 33 250 31 225 32.7C200 34.3 175 39.7 150 39.7C125 39.7 100 34.3 75 32.7C50 31 25 33 12.5 34L0 35Z" fill="#4e3967"></path><path d="M0 137L12.5 132.7C25 128.3 50 119.7 75 110C100 100.3 125 89.7 150 92C175 94.3 200 109.7 225 114C250 118.3 275 111.7 300 111.7C325 111.7 350 118.3 375 116C400 113.7 425 102.3 450 100C475 97.7 500 104.3 525 111C550 117.7 575 124.3 600 130C625 135.7 650 140.3 675 133C700 125.7 725 106.3 750 97.7C775 89 800 91 825 96.7C850 102.3 875 111.7 900 119.3C925 127 950 133 975 125.3C1000 117.7 1025 96.3 1050 93C1075 89.7 1100 104.3 1125 107.7C1150 111 1175 103 1187.5 99L1200 95L1200 71L1187.5 70.7C1175 70.3 1150 69.7 1125 66C1100 62.3 1075 55.7 1050 50.7C1025 45.7 1000 42.3 975 50C950 57.7 925 76.3 900 79C875 81.7 850 68.3 825 65C800 61.7 775 68.3 750 73C725 77.7 700 80.3 675 80.3C650 80.3 625 77.7 600 71.3C575 65 550 55 525 52C500 49 475 53 450 57.7C425 62.3 400 67.7 375 68.7C350 69.7 325 66.3 300 63.3C275 60.3 250 57.7 225 56C200 54.3 175 53.7 150 51.7C125 49.7 100 46.3 75 44C50 41.7 25 40.3 12.5 39.7L0 39Z" fill="#9a3b74"></path><path d="M0 163L12.5 162.3C25 161.7 50 160.3 75 163.3C100 166.3 125 173.7 150 172.7C175 171.7 200 162.3 225 165C250 167.7 275 182.3 300 186.3C325 190.3 350 183.7 375 181C400 178.3 425 179.7 450 182.7C475 185.7 500 190.3 525 192.3C550 194.3 575 193.7 600 189C625 184.3 650 175.7 675 170.3C700 165 725 163 750 164.3C775 165.7 800 170.3 825 173C850 175.7 875 176.3 900 173C925 169.7 950 162.3 975 165C1000 167.7 1025 180.3 1050 186C1075 191.7 1100 190.3 1125 185.7C1150 181 1175 173 1187.5 169L1200 165L1200 93L1187.5 97C1175 101 1150 109 1125 105.7C1100 102.3 1075 87.7 1050 91C1025 94.3 1000 115.7 975 123.3C950 131 925 125 900 117.3C875 109.7 850 100.3 825 94.7C800 89 775 87 750 95.7C725 104.3 700 123.7 675 131C650 138.3 625 133.7 600 128C575 122.3 550 115.7 525 109C500 102.3 475 95.7 450 98C425 100.3 400 111.7 375 114C350 116.3 325 109.7 300 109.7C275 109.7 250 116.3 225 112C200 107.7 175 92.3 150 90C125 87.7 100 98.3 75 108C50 117.7 25 126.3 12.5 130.7L0 135Z" fill="#dd4259"></path><path d="M0 201L12.5 201C25 201 50 201 75 201C100 201 125 201 150 201C175 201 200 201 225 201C250 201 275 201 300 201C325 201 350 201 375 201C400 201 425 201 450 201C475 201 500 201 525 201C550 201 575 201 600 201C625 201 650 201 675 201C700 201 725 201 750 201C775 201 800 201 825 201C850 201 875 201 900 201C925 201 950 201 975 201C1000 201 1025 201 1050 201C1075 201 1100 201 1125 201C1150 201 1175 201 1187.5 201L1200 201L1200 163L1187.5 167C1175 171 1150 179 1125 183.7C1100 188.3 1075 189.7 1050 184C1025 178.3 1000 165.7 975 163C950 160.3 925 167.7 900 171C875 174.3 850 173.7 825 171C800 168.3 775 163.7 750 162.3C725 161 700 163 675 168.3C650 173.7 625 182.3 600 187C575 191.7 550 192.3 525 190.3C500 188.3 475 183.7 450 180.7C425 177.7 400 176.3 375 179C350 181.7 325 188.3 300 184.3C275 180.3 250 165.7 225 163C200 160.3 175 169.7 150 170.7C125 171.7 100 164.3 75 161.3C50 158.3 25 159.7 12.5 160.3L0 161Z" fill="#f97316"></path></svg>