<svg id="visual" viewBox="0 0 900 200" width="900" height="200" xmlns="http://www.w3.org/2000/svg" xmlns:xlink="http://www.w3.org/1999/xlink" version="1.1"><rect x="0" y="0" width="900" height="200" fill="#0000"></rect><path d="M0 59L21.5 71C43 83 86 107 128.8 106.5C171.7 106 214.3 81 257.2 70.7C300 60.3 343 64.7 385.8 70.8C428.7 77 471.3 85 514.2 88.2C557 91.3 600 89.7 642.8 90.8C685.7 92 728.3 96 771.2 91.8C814 87.7 857 75.3 878.5 69.2L900 63L900 201L878.5 201C857 201 814 201 771.2 201C728.3 201 685.7 201 642.8 201C600 201 557 201 514.2 201C471.3 201 428.7 201 385.8 201C343 201 300 201 257.2 201C214.3 201 171.7 201 128.8 201C86 201 43 201 21.5 201L0 201Z" fill="#f97316" stroke-linecap="round" stroke-linejoin="miter"></path></svg>